<?xml version="1.0" standalone="no"?>
<!DOCTYPE svg PUBLIC "-//W3C//DTD SVG 20010904//EN"
 "http://www.w3.org/TR/2001/REC-SVG-20010904/DTD/svg10.dtd">
<svg version="1.0" xmlns="http://www.w3.org/2000/svg"
 width="630.000000pt" height="630.000000pt" viewBox="0 0 630.000000 630.000000"
 preserveAspectRatio="xMidYMid meet">
<metadata>
Created by potrace 1.14, written by Peter Selinger 2001-2017
</metadata>
<g transform="translate(0.000000,630.000000) scale(0.100000,-0.100000)"
fill="#000000" stroke="none">
<path d="M2940 5530 c-110 -7 -276 -31 -350 -50 -39 -10 -103 -21 -137 -24
-13 0 -23 -3 -23 -6 0 -3 -21 -12 -47 -19 -27 -7 -78 -24 -114 -37 -37 -12
-70 -20 -73 -17 -3 4 -6 1 -6 -5 0 -7 -6 -12 -12 -12 -7 0 -35 -11 -63 -25
-27 -13 -55 -25 -62 -25 -6 0 -29 -10 -50 -22 -20 -12 -43 -23 -49 -24 -7 -1
-28 -14 -47 -28 -18 -14 -36 -23 -40 -20 -3 3 -15 -3 -27 -13 -11 -11 -33 -26
-48 -34 -15 -8 -29 -16 -32 -19 -10 -11 -60 -40 -60 -36 0 3 -11 -5 -25 -18
-14 -13 -44 -36 -67 -52 -24 -16 -52 -37 -63 -48 -11 -10 -36 -30 -55 -45 -19
-14 -69 -61 -111 -103 -41 -43 -81 -78 -88 -78 -7 0 -10 -4 -7 -9 3 -5 -8 -24
-26 -42 -17 -19 -47 -54 -66 -79 -19 -25 -49 -63 -68 -85 -42 -50 -77 -99
-103 -145 -10 -19 -29 -45 -41 -57 -11 -13 -18 -23 -15 -23 3 0 -1 -13 -10
-30 -9 -16 -20 -30 -25 -30 -6 0 -9 -3 -8 -7 4 -13 -24 -73 -34 -73 -5 0 -7
-4 -4 -9 3 -5 0 -14 -8 -20 -10 -9 -39 -7 -119 7 -147 27 -327 21 -327 -9 0
-6 -4 -8 -9 -5 -13 8 -24 -87 -15 -126 4 -18 7 -37 6 -41 -2 -5 2 -6 7 -3 5 4
15 0 23 -7 32 -31 85 -66 91 -60 4 3 7 1 7 -5 0 -6 9 -14 21 -17 11 -4 25 -18
31 -31 6 -13 19 -24 30 -24 10 0 18 -3 18 -7 0 -5 18 -28 40 -52 22 -25 40
-51 40 -59 0 -8 -12 -76 -27 -151 -25 -126 -27 -155 -28 -391 0 -289 4 -338
42 -515 8 -38 17 -81 19 -94 3 -14 7 -28 10 -32 2 -5 13 -41 23 -81 11 -40 26
-86 35 -103 9 -16 16 -35 16 -41 0 -5 9 -28 19 -50 10 -21 21 -48 23 -59 1
-11 5 -22 8 -25 3 -3 21 -36 39 -75 19 -38 38 -72 42 -75 5 -3 15 -22 23 -42
9 -20 36 -66 61 -102 25 -36 45 -71 45 -76 0 -6 4 -10 8 -10 4 0 21 -20 37
-46 16 -25 39 -57 53 -72 13 -15 31 -38 40 -52 9 -14 29 -36 44 -49 15 -13 28
-30 28 -37 0 -8 4 -13 9 -11 5 1 23 -13 40 -30 17 -18 29 -33 26 -33 -3 0 4
-10 15 -22 12 -13 25 -23 30 -23 4 0 37 -28 73 -62 36 -34 79 -69 96 -77 16
-9 34 -22 38 -29 4 -7 25 -23 46 -36 20 -12 37 -27 37 -32 0 -6 4 -8 8 -5 11
7 72 -31 72 -44 0 -5 7 -10 17 -10 9 0 31 -11 50 -26 18 -14 33 -22 33 -19 0
3 14 -2 30 -12 17 -9 30 -21 30 -26 0 -4 5 -5 11 -2 5 4 18 0 27 -8 9 -8 56
-31 105 -51 48 -21 100 -44 115 -52 15 -7 33 -14 40 -14 7 0 20 -4 30 -10 25
-14 236 -76 322 -95 199 -44 450 -59 716 -42 67 4 146 11 175 17 30 5 72 11
94 14 22 3 56 10 75 16 19 5 50 10 67 10 18 0 33 3 33 8 0 4 25 13 56 20 119
28 238 73 387 147 26 14 47 22 47 19 0 -3 13 4 29 15 16 12 36 21 45 21 9 0
16 4 16 8 0 9 71 47 83 44 4 -1 10 5 13 13 3 8 10 12 15 9 5 -3 9 0 9 6 0 7 7
10 15 6 8 -3 14 -1 12 5 -1 6 14 19 33 29 19 11 40 23 45 27 6 4 24 19 41 33
17 14 43 34 58 44 15 11 37 29 50 40 13 12 33 28 46 36 38 26 297 290 283 290
-3 0 6 11 20 24 14 13 23 27 20 30 -3 3 2 8 11 12 9 3 14 10 11 14 -3 5 4 12
16 15 11 4 18 9 15 13 -3 3 5 19 17 36 13 17 38 57 56 89 18 31 39 64 47 72 8
8 14 16 13 17 -5 7 42 88 51 88 6 0 9 3 8 8 -1 4 8 28 20 54 12 26 22 50 22
53 0 3 16 37 34 75 19 39 33 70 31 70 -3 0 11 44 29 98 33 95 75 253 81 302 2
14 10 81 20 150 22 166 21 554 -2 580 -2 2 18 26 44 53 142 146 187 188 209
193 13 3 22 10 19 14 -3 4 6 15 20 24 14 9 25 23 25 31 0 8 4 15 8 15 14 0 28
42 31 91 2 46 2 47 -41 68 -51 24 -85 26 -259 10 -138 -13 -179 -8 -179 19 0
9 -10 35 -21 57 -12 22 -21 41 -20 43 1 1 -19 46 -45 100 -26 53 -48 99 -49
102 0 3 -14 25 -30 50 -17 25 -37 57 -44 72 -8 15 -22 36 -32 47 -10 10 -16
21 -14 23 2 2 -12 21 -31 43 -20 22 -44 57 -55 78 -11 21 -24 35 -28 32 -5 -2
-12 6 -15 20 -4 14 -13 25 -21 25 -8 0 -15 3 -15 8 0 4 -23 32 -51 62 -27 30
-59 69 -69 85 -11 17 -20 26 -20 20 0 -5 -18 8 -40 30 -21 21 -37 42 -34 47 3
4 -1 8 -9 8 -8 0 -25 9 -38 20 -13 11 -37 30 -52 43 -15 12 -39 32 -53 45 -14
12 -27 22 -30 22 -3 0 -10 5 -17 10 -18 16 -105 71 -162 104 -27 15 -52 31
-55 35 -3 4 -23 15 -45 25 -22 10 -48 25 -57 34 -10 8 -18 11 -18 6 0 -5 -4
-4 -8 1 -8 11 -103 58 -139 69 -13 4 -23 12 -23 17 0 6 -4 7 -10 4 -5 -3 -10
-1 -10 5 0 6 -4 8 -10 5 -5 -3 -20 0 -32 7 -13 6 -31 13 -41 15 -9 2 -45 14
-79 28 -35 14 -76 28 -93 31 -16 3 -32 9 -33 15 -2 5 -7 7 -11 5 -4 -3 -50 3
-102 13 -120 24 -209 39 -279 46 -95 10 -321 12 -440 5z m435 -164 c22 -3 54
-8 70 -10 86 -12 173 -28 201 -37 17 -5 42 -12 55 -14 48 -9 165 -47 209 -68
25 -11 50 -21 55 -22 6 -1 19 -5 30 -9 11 -4 44 -17 73 -28 29 -11 65 -30 80
-42 14 -11 27 -20 27 -18 0 8 65 -21 65 -30 0 -5 5 -6 10 -3 6 3 13 0 16 -8 3
-9 17 -18 31 -22 31 -7 113 -62 113 -75 0 -4 14 -11 30 -15 17 -4 36 -15 43
-26 6 -10 17 -19 23 -19 7 0 19 -11 28 -25 9 -14 22 -25 29 -25 15 0 178 -142
220 -190 15 -18 27 -37 27 -43 0 -6 3 -8 6 -5 8 8 73 -67 149 -172 48 -66 137
-204 139 -215 1 -6 12 -24 24 -39 12 -16 22 -35 22 -42 0 -7 6 -19 13 -26 17
-19 37 -56 37 -68 0 -6 11 -33 24 -60 22 -44 23 -52 9 -65 -17 -18 -39 -19
-49 -4 -5 8 -8 8 -14 0 -4 -7 -33 40 -70 111 -34 68 -71 135 -81 150 -11 14
-19 31 -19 38 0 7 -10 25 -22 41 -13 15 -39 51 -58 80 -19 28 -52 70 -72 93
-21 22 -38 44 -38 47 0 3 -21 28 -48 55 -26 27 -66 70 -90 97 -23 26 -45 47
-48 47 -4 0 -24 19 -45 41 -22 23 -39 38 -39 34 0 -4 -16 9 -35 29 -19 20 -40
36 -46 36 -6 0 -30 16 -53 35 -24 19 -48 35 -55 35 -6 0 -11 4 -11 10 0 5 -3
9 -7 8 -5 -1 -35 15 -67 36 -33 21 -80 48 -105 59 -25 12 -48 24 -51 27 -3 3
-48 24 -100 47 -296 129 -570 183 -923 183 -120 1 -221 -1 -225 -3 -4 -3 -30
-7 -58 -11 -28 -3 -95 -15 -150 -27 -54 -11 -106 -22 -114 -23 -8 -2 -22 -6
-30 -9 -41 -16 -120 -35 -120 -29 0 4 -4 2 -8 -4 -4 -6 -41 -24 -82 -38 -41
-15 -79 -31 -85 -36 -5 -4 -19 -10 -30 -12 -11 -1 -22 -6 -25 -9 -3 -3 -43
-25 -90 -48 -47 -23 -98 -51 -115 -61 -41 -26 -83 -50 -92 -52 -5 -1 -21 -14
-36 -30 -16 -15 -33 -28 -38 -28 -6 0 -16 -6 -24 -12 -27 -26 -55 -48 -63 -48
-4 0 -18 -14 -31 -31 -13 -16 -30 -28 -38 -25 -7 3 -13 0 -13 -7 0 -17 -156
-167 -165 -159 -5 4 -5 1 -1 -5 4 -8 -11 -31 -39 -60 -25 -26 -48 -55 -50 -64
-3 -9 -15 -19 -27 -23 -12 -3 -19 -8 -15 -12 3 -3 -5 -21 -18 -39 -14 -17 -25
-36 -25 -42 0 -5 -11 -20 -25 -33 -14 -13 -25 -29 -25 -35 0 -6 -8 -20 -18
-31 -10 -11 -22 -31 -25 -44 -12 -44 -42 -70 -87 -74 -29 -3 -43 0 -47 9 -5
14 35 97 50 103 4 2 7 9 7 15 0 36 266 386 308 406 12 6 21 14 20 18 -4 13
216 219 245 228 9 4 17 11 17 16 0 5 7 9 15 9 8 0 15 4 15 10 0 5 25 24 55 41
30 17 55 34 55 39 0 4 8 10 18 13 9 3 40 20 67 36 84 51 125 72 125 64 0 -5 4
-3 8 4 11 17 237 113 302 128 8 2 26 7 40 13 14 5 31 7 39 4 8 -2 11 0 8 5 -6
10 24 20 86 29 15 2 35 8 45 13 19 10 116 27 257 46 91 12 465 13 540 1z m-31
-1120 c119 -19 426 -119 426 -139 0 -4 5 -5 10 -2 6 3 10 1 10 -4 0 -6 3 -10
8 -9 10 2 41 -10 77 -29 153 -81 178 -97 275 -171 34 -26 53 -28 125 -12 46
10 200 14 655 15 557 2 646 5 792 24 56 7 111 -6 129 -31 12 -18 -4 -70 -27
-85 -13 -8 -24 -21 -24 -29 0 -7 -12 -22 -27 -31 -16 -10 -37 -27 -48 -38 -11
-11 -39 -37 -63 -58 -23 -21 -66 -63 -95 -95 -28 -31 -53 -56 -54 -54 -5 4
-48 -43 -46 -50 2 -4 -10 -17 -25 -28 -15 -12 -26 -25 -24 -28 5 -14 -203
-232 -222 -232 -4 0 -22 -12 -39 -26 -31 -26 -147 -88 -147 -79 0 3 -10 -1
-22 -9 -20 -13 -164 -54 -208 -60 -8 -1 -28 -8 -45 -15 -16 -7 -41 -14 -55
-15 -14 -1 -30 -4 -35 -8 -6 -3 -39 -14 -75 -24 -48 -13 -100 -17 -202 -16
-89 1 -140 -3 -144 -10 -4 -6 8 -22 26 -37 19 -14 49 -41 68 -59 39 -38 38
-60 -3 -124 l-24 -37 22 -7 c12 -3 29 -13 38 -20 14 -12 23 -11 72 11 41 19
69 25 104 23 47 -3 48 -4 50 -38 2 -45 -9 -64 -47 -80 -46 -19 -37 -37 28 -56
65 -19 85 -31 75 -48 -3 -6 -3 -8 2 -4 14 13 35 -13 35 -41 0 -58 -50 -88
-102 -60 -27 14 -86 -16 -95 -49 -4 -17 -10 -21 -24 -17 -11 4 -19 2 -19 -3 0
-10 -71 -48 -100 -54 -14 -3 -50 -60 -50 -82 -1 -6 -21 -33 -46 -61 -35 -40
-46 -47 -54 -35 -5 8 -5 21 -1 29 5 8 4 28 -1 45 -16 55 -18 75 -8 81 6 4 8
10 5 14 -9 16 -14 110 -6 116 5 3 13 35 17 72 5 51 12 72 29 87 13 12 43 40
68 64 24 23 50 42 56 42 6 0 11 8 11 18 0 21 -35 41 -62 36 -24 -3 -23 3 5 40
13 17 29 47 36 66 12 35 12 35 -45 88 -31 28 -61 52 -65 52 -4 0 -15 -12 -24
-27 -12 -20 -32 -33 -73 -45 -64 -20 -269 -41 -352 -36 -30 1 -97 1 -147 0
-51 -2 -98 0 -105 5 -21 12 -35 12 -140 -1 -54 -7 -104 -18 -111 -25 -6 -6
-21 -11 -34 -11 -22 0 -74 -19 -83 -31 -10 -13 -101 -39 -136 -39 -19 0 -48
-7 -63 -15 -16 -8 -70 -17 -121 -21 -82 -6 -97 -10 -124 -35 -29 -25 -31 -32
-34 -108 -3 -66 0 -88 17 -124 13 -26 21 -61 20 -88 l-1 -44 -8 50 c-4 28 -15
65 -24 82 -11 23 -16 58 -16 119 0 84 1 87 33 118 30 31 37 33 125 39 51 4
105 13 120 21 15 7 52 16 84 19 31 3 69 12 85 21 28 15 27 15 -42 17 -38 0
-108 4 -155 7 -165 12 -309 5 -347 -17 -9 -5 -33 -4 -57 1 -22 5 -90 8 -151 5
-60 -2 -117 -1 -125 3 -8 5 -34 16 -57 25 -23 10 -40 21 -38 25 3 4 -9 13 -25
20 -16 7 -32 21 -35 31 -4 10 -10 19 -13 19 -4 0 -22 14 -40 30 -18 17 -39 30
-45 30 -37 1 -231 33 -301 50 -78 19 -199 58 -222 72 -6 4 -46 26 -90 49 -43
22 -84 47 -90 55 -6 7 -13 11 -16 9 -3 -3 -16 6 -29 20 -13 13 -29 25 -34 25
-10 0 -78 58 -143 122 -18 18 -35 43 -39 56 -3 12 -14 27 -24 33 -11 5 -17 14
-14 20 4 5 2 9 -3 9 -9 0 -25 37 -23 53 1 4 -3 7 -8 7 -4 0 -26 39 -49 88 -22
48 -49 96 -59 107 -10 11 -30 36 -43 55 -13 19 -32 44 -42 54 -10 11 -20 28
-24 38 -3 10 -10 16 -15 13 -5 -4 -9 1 -9 10 0 9 -4 14 -8 11 -5 -3 -32 20
-60 49 -28 30 -56 55 -62 55 -5 0 -10 5 -10 12 0 6 -3 9 -6 5 -16 -15 -110 56
-98 75 3 4 0 8 -6 8 -18 0 -2 52 23 75 19 17 35 20 117 20 52 -1 118 -6 145
-13 78 -19 184 -37 420 -72 77 -11 158 -25 180 -30 22 -6 49 -12 60 -14 11 -2
50 -11 88 -20 165 -40 195 -46 223 -46 17 0 34 -3 38 -7 3 -4 24 -8 45 -10 22
-2 82 -12 134 -22 95 -20 125 -19 164 6 12 8 24 13 27 11 3 -2 13 4 23 12 10
8 29 21 43 28 14 7 47 25 75 41 27 16 53 27 56 25 4 -2 12 3 19 11 16 19 96
55 121 55 11 0 19 4 19 9 0 9 114 57 156 66 18 4 68 20 109 36 151 57 387 70
609 35z m-2455 -763 c7 -14 9 -28 6 -31 -3 -3 2 -13 11 -23 14 -15 16 -48 15
-232 -2 -184 6 -312 24 -417 18 -103 84 -323 128 -430 6 -14 11 -27 12 -30 1
-3 11 -25 23 -50 12 -25 22 -51 22 -57 0 -7 4 -13 8 -13 4 0 18 -20 30 -45 12
-24 46 -83 77 -130 30 -47 55 -90 55 -95 0 -5 6 -13 13 -17 7 -4 24 -24 37
-43 53 -77 247 -273 350 -355 41 -33 77 -63 78 -67 2 -5 8 -8 14 -8 6 0 24
-11 42 -25 48 -39 78 -59 116 -77 14 -7 39 -23 57 -36 17 -13 33 -22 35 -21 2
2 37 -13 78 -33 97 -46 156 -72 203 -89 20 -7 37 -17 37 -22 0 -4 4 -6 9 -3 5
3 33 -3 63 -13 177 -61 440 -101 670 -101 235 0 475 35 658 95 25 8 56 17 70
20 14 2 34 9 45 14 11 6 61 27 110 47 50 20 116 49 147 65 32 16 60 28 63 27
2 -2 12 4 22 12 46 39 84 61 95 54 7 -4 10 -4 6 1 -4 4 25 30 65 57 87 61 142
104 224 182 35 32 63 55 63 50 0 -5 7 2 16 15 9 13 31 40 49 60 94 104 128
148 200 252 43 63 83 117 88 120 5 3 8 8 7 10 -1 2 22 54 52 114 49 103 87
189 88 200 1 3 8 24 16 47 38 107 77 272 99 418 4 25 10 107 14 182 l6 137 37
36 c20 21 42 34 48 30 7 -4 10 -53 9 -148 -3 -241 -17 -337 -89 -602 -30 -111
-114 -305 -131 -305 -7 0 -9 -3 -6 -7 4 -3 2 -12 -4 -20 -6 -7 -9 -13 -6 -13
17 0 -152 -280 -209 -347 -10 -12 -30 -38 -44 -57 -14 -20 -31 -36 -38 -36 -7
0 -11 -4 -8 -8 6 -10 -198 -214 -206 -206 -4 3 -9 -4 -13 -15 -6 -19 -17 -25
-37 -22 -5 0 -7 -4 -5 -10 1 -7 -18 -27 -43 -45 -25 -18 -59 -44 -75 -57 -70
-57 -339 -221 -365 -222 -3 0 -25 -10 -50 -22 -97 -46 -140 -63 -159 -63 -12
0 -21 -4 -21 -9 0 -5 -10 -11 -22 -14 -13 -2 -50 -12 -83 -22 -253 -72 -416
-95 -667 -95 -174 0 -222 4 -413 36 -138 24 -387 93 -410 115 -5 5 -15 9 -23
9 -38 0 -355 155 -407 199 -11 9 -33 23 -48 31 -16 8 -39 24 -52 36 -13 12
-26 20 -28 18 -2 -2 -19 11 -38 29 -19 18 -57 49 -86 69 -74 53 -103 80 -103
95 0 7 -3 12 -7 11 -14 -5 -73 54 -66 65 3 6 1 7 -4 4 -6 -4 -28 13 -49 36
-53 58 -115 135 -115 141 0 3 -13 19 -30 37 -16 17 -28 34 -25 36 2 2 -7 15
-19 29 -54 58 -165 269 -233 440 -62 156 -97 294 -134 524 -16 101 -15 443 1
551 11 75 15 86 31 82 10 -3 23 -16 29 -30z m1121 -628 c0 -8 -5 -15 -11 -15
-6 0 -26 -7 -45 -16 -83 -40 -85 -148 -4 -239 10 -11 21 -42 25 -70 8 -56 17
-77 51 -118 33 -39 30 -55 -2 -20 -34 36 -64 100 -64 138 0 18 -14 50 -35 79
-43 61 -56 104 -45 152 11 49 46 83 128 123 1 0 2 -6 2 -14z m1942 -480 c-2
-11 -10 -33 -17 -50 -15 -35 -26 -77 -30 -123 -2 -18 -11 -42 -20 -52 -13 -14
-16 -28 -11 -52 17 -88 17 -116 4 -156 -16 -48 -9 -105 32 -237 20 -67 24
-136 16 -340 0 -16 3 -46 7 -65 7 -34 6 -36 -34 -53 -23 -10 -48 -16 -56 -13
-8 3 -11 1 -8 -4 3 -6 -2 -11 -12 -12 -32 -2 -38 -4 -59 -16 -12 -6 -39 -16
-60 -21 -22 -5 -57 -15 -79 -20 -42 -11 -204 -39 -265 -46 -19 -3 -55 -7 -80
-10 -57 -6 -342 -7 -361 -1 -8 3 -38 7 -68 10 -30 3 -59 11 -63 18 -11 16 -3
234 10 303 6 28 16 84 22 125 7 41 17 83 22 93 5 10 12 37 15 60 9 68 9 70 16
107 10 47 14 74 22 142 4 32 13 62 19 67 6 5 42 11 79 13 46 3 75 10 89 22 25
22 67 35 127 41 24 3 57 12 74 20 17 8 36 15 43 15 7 0 28 14 46 30 28 26 37
31 51 30 7 -1 118 40 145 54 17 9 40 17 50 19 11 2 27 8 34 15 8 6 18 9 21 5
4 -3 7 -2 7 4 0 6 20 14 45 17 25 4 45 11 45 16 0 5 21 16 48 25 26 8 58 22
72 30 35 20 66 15 62 -10z m-1854 -54 c72 -50 154 -83 267 -107 33 -7 89 -23
125 -36 l65 -23 0 -45 c0 -48 20 -94 36 -84 5 3 21 -2 35 -11 21 -14 42 -16
113 -12 47 3 95 9 105 13 14 5 17 4 12 -4 -4 -7 -17 -12 -29 -12 -12 0 -27 -4
-33 -8 -20 -13 -75 -124 -76 -154 -1 -32 27 -68 52 -68 18 0 44 -23 35 -31 -2
-3 -6 -25 -9 -49 -3 -25 -16 -98 -30 -162 -15 -68 -28 -168 -32 -235 -8 -168
-7 -166 -52 -158 -20 3 -50 10 -67 15 -75 23 -211 64 -222 66 -27 5 -179 68
-191 79 -24 22 -18 60 39 257 11 35 9 39 -20 69 -30 29 -33 30 -50 15 -28 -26
-57 -20 -80 18 -21 33 -29 111 -12 104 6 -1 46 -36 89 -75 86 -78 97 -79 108
-16 3 15 9 42 14 58 13 43 27 144 21 143 -12 -3 -91 37 -91 45 0 4 -4 5 -10 2
-5 -3 -10 -2 -10 4 0 22 -52 61 -81 61 -26 0 -33 6 -49 43 -11 23 -20 38 -20
32 0 -14 -26 26 -35 55 -4 14 -14 33 -23 42 -8 10 -16 36 -18 59 -1 22 -5 43
-8 46 -3 3 -21 2 -40 -1 -50 -10 -101 -90 -101 -162 0 -45 6 -60 50 -124 27
-39 58 -76 69 -82 27 -15 81 -68 94 -95 9 -16 9 -22 -2 -26 -8 -3 -21 -26 -31
-50 -18 -48 -28 -54 -85 -53 -32 1 -35 4 -39 36 -2 19 2 76 9 127 l12 92 -34
43 c-65 82 -73 133 -33 215 32 64 53 82 101 90 21 4 45 12 52 20 7 7 20 13 27
13 8 0 19 9 25 20 13 25 25 25 58 1z m2367 -147 c-4 -50 -29 -131 -52 -173
-17 -31 -13 -11 16 70 11 30 21 76 23 102 2 26 6 47 10 47 4 0 6 -21 3 -46z
m-135 -266 c-71 -65 -128 -97 -175 -98 -76 0 -174 43 -231 101 -48 49 -36 52
14 3 82 -82 227 -115 297 -69 30 20 89 71 129 111 12 11 23 18 26 16 3 -2 -24
-31 -60 -64z"/>
<path d="M2943 4130 c-54 -11 -106 -36 -129 -61 -18 -20 -18 -20 10 -9 15 5
33 7 39 3 7 -3 9 -2 4 2 -12 14 52 35 107 35 28 0 69 -6 90 -14 33 -11 48 -11
99 0 102 24 181 20 217 -12 10 -8 21 -10 29 -4 11 6 6 13 -20 29 -37 23 -48
24 -219 26 -63 0 -131 4 -150 7 -19 4 -54 3 -77 -2z"/>
<path d="M705 4000 c-7 -12 12 -50 25 -50 6 0 10 -6 10 -13 0 -7 13 -23 30
-35 16 -12 33 -34 36 -47 3 -14 9 -25 13 -25 3 0 15 -17 25 -37 10 -21 23 -47
29 -58 6 -11 19 -38 29 -60 10 -22 25 -52 33 -67 8 -16 23 -43 33 -60 9 -18
22 -36 27 -40 6 -4 7 -8 3 -8 -5 0 1 -9 13 -21 11 -11 18 -27 15 -35 -3 -8 -2
-13 3 -10 5 3 16 -5 25 -19 9 -13 29 -38 46 -55 16 -16 27 -30 24 -30 -10 0
109 -95 147 -118 20 -12 70 -36 110 -53 70 -29 80 -30 206 -29 135 1 182 -9
243 -50 14 -10 38 -19 53 -22 40 -8 52 22 41 99 -9 63 -9 123 -1 163 23 110
18 166 -20 210 -7 8 -13 18 -13 23 0 4 -11 18 -25 31 -14 13 -25 28 -25 35 0
6 -4 11 -9 11 -4 0 -29 18 -54 40 -25 22 -49 40 -54 40 -6 0 -23 6 -39 14 -16
8 -72 24 -124 36 -52 12 -122 30 -155 41 -33 11 -75 24 -94 29 -19 5 -37 14
-41 21 -4 6 -12 9 -16 6 -5 -3 -49 6 -99 19 -49 13 -108 28 -130 33 -85 20
-123 32 -217 65 -54 19 -100 31 -103 26z"/>
<path d="M2886 3944 c-23 -6 -66 -18 -96 -27 -30 -9 -68 -20 -85 -24 -29 -7
-29 -7 11 -11 24 -2 68 6 105 18 54 19 83 21 209 19 80 -1 187 2 238 6 76 6
100 4 137 -10 25 -9 64 -18 88 -20 24 -1 53 -6 65 -9 31 -10 28 12 -4 24 -14
6 -45 10 -70 10 -25 0 -59 8 -77 18 -28 15 -62 17 -256 17 -128 0 -242 -5
-265 -11z"/>
<path d="M5570 3778 c-146 -69 -196 -76 -530 -79 -137 0 -262 -6 -300 -13 -77
-15 -197 -54 -205 -67 -4 -5 -15 -9 -26 -9 -10 0 -19 -4 -19 -10 0 -5 -13 -16
-29 -24 -38 -20 -106 -90 -136 -141 -30 -52 -36 -95 -19 -142 17 -49 17 -105
0 -170 -11 -42 -12 -55 -1 -69 11 -16 19 -17 83 -5 74 13 135 15 187 6 106
-19 202 -17 285 5 47 13 89 27 95 31 5 5 15 9 22 9 19 0 93 34 93 42 0 5 4 8
9 8 17 0 128 78 149 104 10 14 22 22 26 19 3 -3 6 -2 6 3 0 5 23 34 50 64 28
30 72 87 97 125 25 39 52 74 60 78 7 4 13 15 13 22 0 8 9 24 20 35 11 11 20
23 19 26 -1 3 16 26 37 51 57 66 65 74 73 69 4 -3 8 0 8 7 0 7 4 19 7 28 9 22
-25 21 -74 -3z"/>
<path d="M3671 3669 c-43 -8 -142 -58 -168 -85 -8 -7 -22 -19 -32 -26 -22 -16
-37 -58 -21 -58 19 0 80 29 80 37 0 8 57 47 70 48 3 1 19 8 35 17 21 11 54 15
110 14 96 -2 116 -7 169 -43 48 -33 92 -53 99 -47 12 12 -25 61 -63 84 -22 14
-40 28 -40 33 0 4 -4 6 -9 3 -5 -3 -25 1 -44 9 -46 19 -130 26 -186 14z"/>
<path d="M2435 3638 c-27 -5 -59 -10 -70 -12 -23 -3 -122 -50 -147 -70 -19
-14 -24 -36 -9 -36 5 0 53 16 107 36 90 32 107 35 189 32 79 -3 98 -7 158 -37
37 -19 67 -38 67 -43 0 -11 37 -10 45 1 3 5 1 12 -4 16 -6 3 -7 13 -4 22 4 11
2 14 -5 9 -6 -4 -20 2 -31 13 -11 11 -22 17 -25 14 -3 -4 -6 -2 -6 4 0 13
-122 53 -175 56 -22 2 -62 -1 -90 -5z"/>
<path d="M2425 3519 c-33 -3 -73 -12 -90 -18 -16 -7 -32 -11 -34 -10 -2 1 -26
-18 -53 -42 -53 -47 -79 -89 -97 -157 -11 -38 -10 -48 11 -89 12 -25 33 -49
45 -54 13 -5 23 -13 23 -19 0 -5 3 -9 8 -8 4 2 37 -9 73 -24 96 -39 216 -61
297 -55 80 7 171 34 193 59 9 10 20 14 25 10 5 -4 6 -3 2 2 -4 5 1 19 11 32
17 22 17 25 1 71 -26 76 -48 122 -70 150 -11 14 -17 29 -14 34 3 5 1 9 -5 9
-5 0 -23 12 -38 26 -39 36 -120 74 -173 80 -24 3 -47 7 -50 8 -3 1 -32 -1 -65
-5z m-51 -80 c33 -16 43 -61 21 -96 -15 -22 -22 -24 -53 -19 -38 6 -55 25 -59
66 -2 25 14 53 26 46 4 -3 13 -1 21 5 18 11 15 11 44 -2z m134 -130 c-2 -6 -8
-10 -13 -10 -5 0 -11 4 -13 10 -2 6 4 11 13 11 9 0 15 -5 13 -11z"/>
<path d="M3680 3509 c-19 -5 -48 -11 -65 -14 -16 -4 -37 -13 -46 -21 -8 -8
-19 -11 -22 -7 -4 3 -7 1 -7 -5 0 -5 -16 -20 -35 -32 -19 -12 -35 -26 -35 -32
0 -5 -8 -22 -18 -36 -30 -44 -72 -151 -72 -183 0 -47 13 -62 87 -99 65 -33 73
-35 178 -35 61 -1 121 2 135 7 92 29 176 61 187 70 7 6 13 7 13 4 0 -4 10 2
22 14 12 11 25 20 29 20 10 0 49 65 54 90 5 26 -30 123 -50 140 -8 7 -12 17
-8 23 3 5 1 7 -4 4 -6 -4 -16 0 -23 8 -7 8 -9 15 -4 15 18 0 -34 29 -97 54
-69 27 -148 33 -219 15z m24 -80 c49 -39 26 -100 -38 -103 -34 -1 -40 3 -57
34 -16 29 -17 37 -5 54 11 17 36 30 67 35 4 1 18 -8 33 -20z m126 -119 c0 -5
-7 -10 -15 -10 -8 0 -15 5 -15 10 0 6 7 10 15 10 8 0 15 -4 15 -10z"/>
<path d="M2992 3138 c-7 -7 -12 -25 -12 -40 0 -21 6 -31 25 -38 30 -11 145
-20 145 -11 0 4 14 8 32 9 48 4 65 44 32 76 -19 20 -40 11 -23 -10 9 -12 4
-14 -32 -16 -100 -4 -139 3 -139 24 0 21 -11 23 -28 6z"/>
<path d="M3070 2920 c-125 -4 -150 -8 -174 -25 -16 -11 -37 -25 -47 -31 -11
-6 -16 -14 -11 -19 4 -4 0 -6 -8 -3 -11 4 -16 -1 -18 -17 -1 -19 2 -21 24 -17
14 2 37 15 50 27 37 35 89 43 249 41 142 -2 153 -4 203 -30 30 -15 56 -26 59
-23 9 10 -30 58 -61 74 -44 24 -102 29 -266 23z"/>
<path d="M2950 2846 c-37 -17 -20 -24 73 -31 151 -11 271 5 244 32 -12 11
-292 10 -317 -1z"/>
<path d="M4191 2181 c-19 -19 -19 -23 -6 -61 16 -46 16 -49 4 -72 -5 -10 -5
-19 0 -23 5 -3 12 3 15 13 4 11 20 31 36 46 17 14 30 35 30 46 0 11 5 20 10
20 6 0 10 9 10 19 0 13 -7 19 -22 18 -13 0 -31 3 -40 7 -11 5 -24 0 -37 -13z"/>
</g>
</svg>
